<svg width="145" height="180" viewBox="0 0 145 180" fill="none" xmlns="http://www.w3.org/2000/svg">
<path fill-rule="evenodd" clip-rule="evenodd" d="M0 72V144H71.5H143V72V0H71.5H0V72ZM141.757 71.75L141.5 141.5H71.5H1.5L1.243 71.75L0.985992 2H71.5H142.014L141.757 71.75ZM18.683 16.25C19.132 17.487 19.5 28.4 19.5 40.5C19.5 52.6 19.132 63.513 18.683 64.75C17.875 66.972 17.972 67 26.433 67H35V40.5V14H26.433C17.972 14 17.875 14.028 18.683 16.25ZM41.88 15.067C43.74 15.649 46.316 16.816 47.605 17.661C48.894 18.506 51.053 21.515 52.402 24.348C53.751 27.182 55.158 31.889 55.529 34.809C55.916 37.854 55.688 42.856 54.993 46.535C54.313 50.14 52.516 54.948 50.892 57.509C49.303 60.015 46.427 62.996 44.501 64.132C42.575 65.268 41 66.35 41 66.536C41 66.722 42.688 66.614 44.75 66.296C46.813 65.978 50.786 64.878 53.579 63.851C56.373 62.824 60.496 60.411 62.741 58.489C64.987 56.567 67.852 52.871 69.109 50.276C70.757 46.87 71.401 43.74 71.421 39.028C71.44 34.694 70.838 31.254 69.631 28.793C68.631 26.754 66.617 23.874 65.156 22.394C63.695 20.914 60.182 18.632 57.348 17.323C54.15 15.846 49.598 14.766 45.348 14.476C39.487 14.076 38.987 14.161 41.88 15.067ZM78.643 15.75C79.114 16.713 79.5 27.625 79.5 40C79.5 52.375 79.132 63.513 78.683 64.75C77.875 66.972 77.972 67 86.433 67H95V40.5V14H86.393C78.536 14 77.861 14.153 78.643 15.75ZM103.252 15.486C105.865 16.205 110.28 18.255 113.063 20.041C115.846 21.826 119.221 24.902 120.562 26.876L123 30.464V22.232V14L110.75 14.089C98.835 14.176 98.63 14.215 103.252 15.486ZM108.02 32.951C107.348 34.574 105.798 36.558 104.576 37.359C103.353 38.159 101.261 39.001 99.927 39.229L97.5 39.643L100 40.787C101.375 41.417 103.231 42.517 104.123 43.233C105.016 43.95 106.702 46.102 107.87 48.018L109.993 51.5L109.996 40.75C109.998 34.838 109.83 30 109.621 30C109.413 30 108.693 31.328 108.02 32.951ZM124 48.823C124 49.276 121.637 52.005 118.75 54.888C115.654 57.979 110.628 61.532 106.5 63.548L99.5 66.967L112.25 66.983L125 67V57.5C125 52.275 124.775 48 124.5 48C124.225 48 124 48.37 124 48.823ZM90.222 78.47C87.869 79.204 84.416 80.971 82.549 82.395C80.683 83.818 78.021 87.35 76.634 90.242C75.247 93.134 73.819 97.584 73.461 100.131C73.102 102.678 73.333 107.286 73.973 110.371C74.614 113.456 76.569 118.103 78.319 120.698C80.342 123.699 83.138 126.241 86 127.682C88.475 128.929 92.525 130.209 95 130.527C99.498 131.104 99.499 131.104 96.763 129.527C95.257 128.659 93.397 126.723 92.629 125.225C91.862 123.726 90.669 119.955 89.979 116.844C89.186 113.27 88.922 107.562 89.264 101.344C89.561 95.93 90.563 89.369 91.491 86.764C92.419 84.159 94.523 80.896 96.166 79.514C99.054 77.084 99.076 77.002 96.827 77.067C95.547 77.104 92.575 77.735 90.222 78.47ZM105.599 78.897C107.484 80.047 109.381 82.492 110.444 85.143C111.404 87.539 112.68 93.376 113.28 98.113C114.186 105.272 114.092 108.134 112.726 115.07C111.822 119.659 110.233 124.558 109.195 125.957C108.157 127.356 106.226 129.098 104.904 129.829C102.704 131.045 102.904 131.11 107.253 130.598C109.867 130.289 113.735 129.155 115.848 128.078C117.961 127 121.054 124.564 122.722 122.664C124.39 120.764 126.543 117.145 127.507 114.622C128.83 111.156 129.145 108.134 128.795 102.267C128.485 97.078 127.632 93.141 126.225 90.405C125.066 88.153 122.523 84.91 120.573 83.198C118.623 81.486 114.69 79.392 111.833 78.543C108.975 77.694 105.706 77.002 104.568 77.004C102.839 77.007 103.008 77.317 105.599 78.897ZM18.025 80.565C18.561 81.976 19 92.348 19 103.615C19 120.021 18.696 124.687 17.474 127.05L15.949 130H19.474C21.413 130 23 129.64 23 129.2C23 128.76 22.443 127.843 21.761 127.161C20.896 126.296 20.416 120.44 20.167 107.711C19.947 96.429 20.166 89.88 20.743 90.5C21.255 91.05 23.376 98.155 25.455 106.29C27.534 114.424 29.792 122.974 30.473 125.29C31.669 129.357 31.863 129.51 36.223 129.799L40.736 130.099L46.009 108.799C48.909 97.085 51.67 86.825 52.144 86C52.64 85.136 52.891 93.4 52.736 105.5C52.589 117.05 52.089 127.287 51.627 128.25C50.858 129.85 51.568 130 59.928 130C68.803 130 69.039 129.941 67.985 127.972C67.265 126.627 67.001 117.86 67.2 101.971L67.5 77.998L59.91 77.999L52.32 78L47.518 96.75C44.877 107.063 42.41 116.087 42.037 116.805C41.664 117.522 39.001 109.647 36.119 99.305C33.237 88.962 30.695 79.938 30.471 79.25C30.2 78.42 27.877 78 23.556 78H17.05L18.025 80.565Z" fill="black"/>
<path d="M5.09766 160.781L8.75 171.094L12.3828 160.781H16.2305V175H13.291V171.113L13.584 164.404L9.74609 175H7.73438L3.90625 164.414L4.19922 171.113V175H1.26953V160.781H5.09766ZM26.9922 172.07H21.8555L20.8789 175H17.7637L23.0566 160.781H25.7715L31.0938 175H27.9785L26.9922 172.07ZM22.6465 169.697H26.2012L24.4141 164.375L22.6465 169.697ZM37.6855 169.795H35.3516V175H32.4219V160.781H37.7051C39.3848 160.781 40.6803 161.156 41.5918 161.904C42.5033 162.653 42.959 163.711 42.959 165.078C42.959 166.048 42.7474 166.859 42.3242 167.51C41.9076 168.154 41.2728 168.669 40.4199 169.053L43.4961 174.863V175H40.3516L37.6855 169.795ZM35.3516 167.422H37.7148C38.4505 167.422 39.0202 167.236 39.4238 166.865C39.8275 166.488 40.0293 165.97 40.0293 165.312C40.0293 164.642 39.8372 164.115 39.4531 163.73C39.0755 163.346 38.4928 163.154 37.7051 163.154H35.3516V167.422ZM49.6484 169.297L48.125 170.938V175H45.1953V160.781H48.125V167.227L49.4141 165.459L53.0371 160.781H56.6406L51.5918 167.1L56.7871 175H53.3008L49.6484 169.297ZM72.666 162.324H68.0957V175H66.2305V162.324H61.6699V160.781H72.666V162.324ZM79.9902 169.248H76.6504V175H74.7656V160.781H79.4727C81.0742 160.781 82.3047 161.146 83.1641 161.875C84.0299 162.604 84.4629 163.665 84.4629 165.059C84.4629 165.944 84.222 166.715 83.7402 167.373C83.265 168.031 82.6009 168.522 81.748 168.848L85.0879 174.883V175H83.0762L79.9902 169.248ZM76.6504 167.715H79.5312C80.4622 167.715 81.2012 167.474 81.748 166.992C82.3014 166.51 82.5781 165.866 82.5781 165.059C82.5781 164.18 82.3145 163.506 81.7871 163.037C81.2663 162.568 80.5111 162.331 79.5215 162.324H76.6504V167.715ZM94.9512 171.289H88.9941L87.6562 175H85.7227L91.1523 160.781H92.793L98.2324 175H96.3086L94.9512 171.289ZM89.5605 169.746H94.3945L91.9727 163.096L89.5605 169.746ZM100.146 175V160.781H104.16C105.397 160.781 106.491 161.055 107.441 161.602C108.392 162.148 109.124 162.926 109.639 163.936C110.16 164.945 110.423 166.104 110.43 167.412V168.32C110.43 169.661 110.169 170.837 109.648 171.846C109.134 172.855 108.395 173.63 107.432 174.17C106.475 174.71 105.358 174.987 104.082 175H100.146ZM102.021 162.324V173.467H103.994C105.439 173.467 106.562 173.018 107.363 172.119C108.171 171.221 108.574 169.941 108.574 168.281V167.451C108.574 165.837 108.193 164.583 107.432 163.691C106.676 162.793 105.602 162.337 104.209 162.324H102.021ZM115.283 175H113.408V160.781H115.283V175ZM129.648 175H127.764L120.605 164.043V175H118.721V160.781H120.605L127.783 171.787V160.781H129.648V175ZM143.477 173.135C142.995 173.825 142.321 174.342 141.455 174.688C140.596 175.026 139.593 175.195 138.447 175.195C137.288 175.195 136.26 174.925 135.361 174.385C134.463 173.838 133.766 173.063 133.271 172.061C132.783 171.058 132.533 169.896 132.52 168.574V167.334C132.52 165.192 133.018 163.532 134.014 162.354C135.016 161.175 136.423 160.586 138.232 160.586C139.717 160.586 140.911 160.967 141.816 161.729C142.721 162.484 143.275 163.558 143.477 164.951H141.602C141.25 163.07 140.13 162.129 138.242 162.129C136.986 162.129 136.032 162.572 135.381 163.457C134.736 164.336 134.411 165.612 134.404 167.285V168.447C134.404 170.042 134.769 171.312 135.498 172.256C136.227 173.193 137.214 173.662 138.457 173.662C139.16 173.662 139.775 173.584 140.303 173.428C140.83 173.271 141.266 173.008 141.611 172.637V169.443H138.32V167.92H143.477V173.135Z" fill="black"/>
</svg>
