<svg width="212" height="212" viewBox="0 0 212 212" fill="none" xmlns="http://www.w3.org/2000/svg">
<path fill-rule="evenodd" clip-rule="evenodd" d="M102.214 0.333026C82.0778 2.62302 63.9122 10.6366 48.1228 24.195C46.5721 25.5268 45.2718 26.5742 45.2335 26.5228C45.1951 26.4714 43.601 23.5271 41.6908 19.9796C38.7094 14.4416 38.1526 13.5649 37.7525 13.7791C36.8533 14.2606 29.4596 21.5693 26.7426 24.6626C12.5128 40.8635 3.57226 60.6821 0.622339 82.5649C-0.0657502 87.6671 -0.219293 100.523 0.343788 105.852C3.34834 134.288 17.0362 159.2 39.0931 176.378C46.3202 182.007 55.9722 187.429 64.2304 190.501C65.5756 191.001 66.7235 191.443 66.7811 191.484C66.839 191.524 65.2818 193.991 63.3211 196.967C61.3601 199.943 59.6842 202.565 59.5964 202.794C59.292 203.587 70.5797 207.621 77.9541 209.355C90.8362 212.382 105.742 212.833 118.854 210.593C136.369 207.601 152.841 199.908 166.683 188.257C170.045 185.427 176.799 178.465 179.686 174.855C191.415 160.184 198.811 142.755 201.348 123.804C202.068 118.422 202.338 108.082 201.902 102.545C201.575 98.3942 200.531 91.0273 199.87 88.2135C199.669 87.358 199.569 86.5935 199.648 86.5144C199.727 86.4353 202.539 86.3706 205.896 86.3706H212L211.82 85.2153C211.491 83.1017 209.777 76.4468 208.646 72.8903C199.931 45.4865 181.092 22.9176 156.492 10.4107C146.675 5.41973 137.294 2.45285 125.783 0.699197C120.966 -0.034504 107.313 -0.246812 102.214 0.333026ZM98.2158 23.5695C105.868 24.0412 111.881 25.191 118.854 27.5169C131.497 31.7343 141.85 38.2158 151.6 48.0195C161.499 57.9713 168.676 69.6961 173.079 83.1085L174.105 86.2347L182.324 86.3068L190.542 86.3788L190.355 83.4804C190.252 81.8863 189.856 78.7346 189.476 76.4764C186.925 61.3261 180.853 47.6098 171.145 35.0695L169.508 32.9538L172.548 36.0799C183.169 47.0014 192.152 62.1871 197.07 77.5358C197.897 80.1153 199.43 85.7544 199.43 86.216C199.43 86.301 197.473 86.3706 195.081 86.3706H190.733V90.258C190.733 113.653 182.039 135.039 166.009 151.074C152.601 164.486 135.794 172.468 116.136 174.759C111.892 175.254 101.759 175.175 97.3848 174.614C93.0092 174.052 86.8444 172.797 83.2632 171.739C81.7739 171.299 80.5374 170.964 80.5154 170.994C80.4934 171.025 78.8534 173.496 76.8709 176.486C74.8884 179.476 73.1641 182.034 73.0391 182.171C72.585 182.666 66.134 178.359 61.1658 174.244C57.2017 170.96 51.5385 165.005 48.4141 160.834C39.3396 148.721 33.9479 135.493 31.8573 120.215C31.1776 115.249 31.1782 103.701 31.8578 98.7394C33.3098 88.1439 36.0603 79.116 40.6041 70.0311C44.6149 62.012 48.653 56.1299 55.2401 48.7111L56.4554 47.3423L53.4606 41.7845C49.9721 35.3109 49.84 36.3001 54.5466 33.6537C64.7774 27.9016 76.8916 24.3182 88.5527 23.5948C93.4302 23.2922 93.7016 23.2917 98.2158 23.5695ZM47.857 31.3219C49.165 33.7799 50.2311 35.8867 50.2262 36.0035C50.2216 36.1202 49.3992 36.7663 48.3989 37.4391C42.4526 41.439 34.2129 49.0316 29.8134 54.5652C22.9407 63.2095 17.8322 72.6475 14.5113 82.8367C12.7161 88.3445 12.7112 88.357 12.896 86.9143C13.4259 82.7785 15.8204 73.9551 18.0012 68.1004C23.341 53.7668 31.1469 41.2811 41.3661 30.7282C43.4385 28.5883 45.2117 26.8409 45.3066 26.8449C45.4014 26.8493 46.5493 28.8639 47.857 31.3219ZM67.2882 64.0655L66.8686 65.1341L68.1312 65.3972C68.8255 65.5421 70.6425 65.8757 72.169 66.1388C73.6951 66.402 75.0819 66.7024 75.2504 66.8065C75.8195 67.1585 74.7882 80.8022 73.3196 92.3512C72.1942 101.2 70.0153 114.256 68.4285 121.657L68.1385 123.01L64.1736 123.783C60.2307 124.552 60.2067 124.561 59.8418 125.435C59.6399 125.918 59.4746 126.348 59.4746 126.391C59.4746 126.433 65.0277 126.467 71.8149 126.467H84.1551L84.426 125.584C84.5752 125.098 84.6168 124.657 84.5187 124.602C84.4206 124.548 82.5368 124.156 80.332 123.73L76.3236 122.957L76.3271 117.101C76.335 103.906 77.2092 88.0278 78.5419 76.8798C78.8189 74.5616 78.8843 74.3696 79.2387 74.841C80.5358 76.5661 90.396 93.4489 97.3095 105.782L98.5145 107.932L97.0717 110.696C95.5132 113.681 93.4652 119.486 92.7823 122.853C91.6754 128.312 91.561 135.003 92.4975 139.516C94.1696 147.573 98.8177 152.774 105.961 154.579C114.088 156.632 126.171 154.277 134.504 149.015C135.486 148.394 135.522 148.316 135.611 146.594C135.661 145.616 135.654 144.816 135.594 144.816C135.534 144.816 134.625 145.312 133.574 145.919C129.174 148.456 125.263 149.641 120.484 149.885C113.13 150.259 108.073 147.445 105.027 141.283C103.147 137.48 102.598 134.569 102.588 128.37C102.582 123.847 103.081 117.755 103.479 117.509C103.572 117.452 104.784 119.594 106.173 122.27C107.562 124.947 108.804 127.202 108.934 127.283C109.103 127.387 113.972 124.931 115.378 124.033C115.41 124.013 115.565 121.555 115.722 118.572C116.204 109.461 117.714 95.7353 118.303 95.1144C118.493 94.9146 119.818 94.5523 121.247 94.309C125.771 93.5391 129.393 94.3924 132.014 96.8444C133.583 98.3129 134.671 100.311 134.919 102.184C135.153 103.95 135.558 103.898 138.039 101.778C141.052 99.2048 142.161 97.5961 142.137 95.8356C142.067 90.7201 131.499 88.3129 120.954 91.0107C119.824 91.2999 118.837 91.4739 118.761 91.3975C118.483 91.12 122.8 67.245 123.2 66.8448C123.262 66.7831 124.449 66.5026 125.839 66.2207C127.228 65.939 128.997 65.5799 129.77 65.4231C130.989 65.1751 131.215 65.0256 131.469 64.296C131.922 62.9966 131.868 62.9409 130.335 63.1181C125.023 63.7319 116.29 63.7534 107.879 63.1728C107.362 63.1372 107.162 63.3288 106.881 64.1294L106.53 65.1308L107.8 65.4013C108.499 65.55 110.171 65.8713 111.516 66.1155C112.861 66.3596 114.176 66.6213 114.438 66.6972C114.862 66.8198 114.913 67.2509 114.911 70.69C114.908 75.4524 114.433 90.3596 114.225 92.2332C114.075 93.5744 114.035 93.6283 112.658 94.312C110.809 95.2297 107.856 97.346 105.777 99.2421L104.115 100.758L100.984 95.2634C94.9857 84.7344 89.1888 73.6085 85.7022 65.9309L84.3823 63.0246L83.5461 63.2125C82.4264 63.4636 71.151 63.4528 69.2302 63.1986L67.7081 62.9969L67.2882 64.0655ZM113.826 98.4747C113.826 99.8428 112.696 112.623 112.507 113.387C112.325 114.122 112.156 113.915 109.765 110.031L107.217 105.892L107.712 105.034C109.383 102.135 112.906 97.788 113.586 97.788C113.718 97.788 113.826 98.0971 113.826 98.4747ZM76.6217 184.458C93.7402 193.18 113.169 195.803 132.146 191.955C133.926 191.594 135.436 191.353 135.502 191.418C135.626 191.542 130.962 193.026 127.414 193.991C124.377 194.818 117.709 196.099 113.554 196.655C110.655 197.043 108.034 197.146 101.053 197.146C91.8165 197.146 88.8502 196.907 82.0305 195.613C76.885 194.636 67.9086 192.183 67.2654 191.578C67.0961 191.419 72.6581 182.603 72.928 182.603C72.9562 182.603 74.6183 183.438 76.6217 184.458Z" fill="white"/>
</svg>
