<svg width="39" height="39" viewBox="0 0 39 39" fill="none" xmlns="http://www.w3.org/2000/svg">
<path fill-rule="evenodd" clip-rule="evenodd" d="M18.3924 0.0599059C14.769 0.471838 11.5003 1.91336 8.65917 4.35228C8.38015 4.59184 8.14616 4.78025 8.13927 4.77101C8.13237 4.76177 7.84553 4.23214 7.50181 3.59399C6.96533 2.59781 6.86513 2.4401 6.79315 2.47864C6.63135 2.56524 5.30093 3.87996 4.81203 4.43639C2.25154 7.35067 0.64279 10.9157 0.111983 14.8521C-0.011831 15.7699 -0.0394594 18.0824 0.0618609 19.0411C0.602496 24.1561 3.06548 28.6375 7.03438 31.7275C8.33482 32.74 10.0716 33.7155 11.5576 34.2679C11.7996 34.3579 12.0062 34.4375 12.0165 34.4447C12.0269 34.452 11.7467 34.8958 11.3939 35.4311C11.0411 35.9665 10.7395 36.4381 10.7237 36.4792C10.6689 36.622 12.7 37.3476 14.027 37.6594C16.345 38.204 19.0271 38.2852 21.3864 37.8823C24.5381 37.3439 27.5021 35.9601 29.9928 33.8643C30.5977 33.3553 31.8131 32.103 32.3325 31.4535C34.4431 28.8145 35.7738 25.6793 36.2303 22.2702C36.3599 21.3021 36.4085 19.4421 36.3301 18.4462C36.2713 17.6995 36.0833 16.3743 35.9644 15.8681C35.9283 15.7143 35.9103 15.5767 35.9245 15.5625C35.9387 15.5483 36.4446 15.5366 37.0487 15.5366H38.1471L38.1147 15.3288C38.0555 14.9486 37.7471 13.7515 37.5436 13.1118C35.9753 8.18226 32.5855 4.1225 28.159 1.87272C26.3926 0.974919 24.7045 0.441227 22.6333 0.125774C21.7665 -0.00620669 19.3098 -0.0443974 18.3924 0.0599059ZM17.6729 4.23976C19.0498 4.32461 20.1317 4.53145 21.3864 4.94984C23.6615 5.70847 25.5243 6.87439 27.2788 8.63791C29.0599 10.4281 30.3513 12.5372 31.1437 14.9499L31.3284 15.5122L32.8072 15.5252L34.286 15.5381L34.2523 15.0167C34.2337 14.73 34.1626 14.1631 34.0942 13.7568C33.6352 11.0316 32.5425 8.56422 30.7957 6.30842L30.5011 5.92784L31.0481 6.49018C32.9593 8.45478 34.5756 11.1864 35.4606 13.9474C35.6094 14.4114 35.8852 15.4258 35.8852 15.5088C35.8852 15.5241 35.5331 15.5366 35.1028 15.5366H34.3204V16.2359C34.3204 20.4443 32.7559 24.2913 29.8715 27.1758C27.459 29.5883 24.4347 31.0241 20.8974 31.4363C20.1337 31.5253 18.3104 31.5111 17.5233 31.4101C16.736 31.309 15.6267 31.0833 14.9823 30.893C14.7143 30.8138 14.4918 30.7535 14.4879 30.759C14.4839 30.7645 14.1888 31.209 13.8321 31.7469C13.4754 32.2848 13.1651 32.745 13.1426 32.7695C13.0609 32.8585 11.9001 32.0838 11.0061 31.3436C10.2928 30.7529 9.27379 29.6817 8.71159 28.9314C7.07873 26.7524 6.10856 24.373 5.73237 21.6247C5.61007 20.7314 5.61017 18.6541 5.73247 17.7616C5.99374 15.8556 6.48866 14.2317 7.30626 12.5974C8.02797 11.1549 8.75457 10.0968 9.93985 8.76231L10.1585 8.5161L9.61966 7.51635C8.99193 6.35185 8.96817 6.52979 9.81506 6.05375C11.656 5.01903 13.8358 4.37443 15.9341 4.24431C16.8117 4.18989 16.8606 4.18979 17.6729 4.23976ZM8.61135 5.63429C8.8467 6.07644 9.03853 6.45542 9.03765 6.47644C9.03682 6.49742 8.88885 6.61366 8.70885 6.73468C7.63888 7.45419 6.15624 8.81997 5.3646 9.81537C4.12792 11.3703 3.20871 13.0681 2.61115 14.901C2.28812 15.8917 2.28724 15.894 2.32049 15.6344C2.41585 14.8905 2.8467 13.3033 3.23912 12.2501C4.19995 9.67175 5.60455 7.42578 7.44338 5.52749C7.81628 5.14255 8.13536 4.82823 8.15242 4.82896C8.16949 4.82974 8.37604 5.19214 8.61135 5.63429ZM12.1078 11.5243L12.0323 11.7165L12.2595 11.7639C12.3844 11.7899 12.7113 11.8499 12.986 11.8973C13.2606 11.9446 13.5102 11.9987 13.5405 12.0174C13.6429 12.0807 13.4573 14.535 13.1931 16.6124C12.9906 18.2042 12.5985 20.5527 12.313 21.8841L12.2608 22.1274L11.5473 22.2665C10.8378 22.4049 10.8335 22.4065 10.7679 22.5637C10.7315 22.6506 10.7018 22.728 10.7018 22.7356C10.7018 22.7432 11.701 22.7494 12.9223 22.7494H15.1428L15.1915 22.5905C15.2184 22.5031 15.2259 22.4237 15.2082 22.4139C15.1906 22.4041 14.8516 22.3335 14.4549 22.257L13.7336 22.118L13.7342 21.0645C13.7356 18.6909 13.893 15.8347 14.1328 13.8294C14.1826 13.4124 14.1944 13.3779 14.2581 13.4627C14.4915 13.773 16.2658 16.8099 17.5098 19.0285L17.7266 19.4151L17.467 19.9124C17.1866 20.4493 16.818 21.4935 16.6952 22.0992C16.496 23.0812 16.4754 24.2848 16.6439 25.0966C16.9448 26.546 17.7812 27.4815 19.0665 27.8062C20.5288 28.1755 22.703 27.7519 24.2024 26.8054C24.3793 26.6937 24.3857 26.6796 24.4017 26.3699C24.4108 26.1939 24.4094 26.05 24.3986 26.05C24.3879 26.0501 24.2243 26.1393 24.0353 26.2484C23.2435 26.7048 22.5398 26.918 21.6798 26.9617C20.3565 27.0291 19.4466 26.5229 18.8985 25.4144C18.5602 24.7304 18.4613 24.2067 18.4597 23.0917C18.4584 22.278 18.5483 21.1822 18.6199 21.138C18.6366 21.1276 18.8548 21.513 19.1046 21.9944C19.3545 22.4758 19.5781 22.8815 19.6015 22.8961C19.6318 22.9148 20.5081 22.473 20.7611 22.3115C20.7667 22.3079 20.7946 21.8658 20.823 21.3291C20.9096 19.6901 21.1813 17.2212 21.2874 17.1095C21.3215 17.0736 21.5599 17.0084 21.8171 16.9646C22.631 16.8261 23.2829 16.9796 23.7545 17.4207C24.0369 17.6849 24.2325 18.0444 24.2772 18.3813C24.3194 18.699 24.3921 18.6895 24.8386 18.3082C25.3808 17.8453 25.5804 17.5559 25.576 17.2392C25.5633 16.319 23.6618 15.886 21.7643 16.3713C21.561 16.4233 21.3835 16.4546 21.3697 16.4409C21.3198 16.391 22.0965 12.0963 22.1686 12.0243C22.1796 12.0132 22.3932 11.9627 22.6433 11.912C22.8933 11.8613 23.2117 11.7967 23.3508 11.7685C23.5701 11.7239 23.6107 11.697 23.6564 11.5658C23.7379 11.332 23.7282 11.322 23.4524 11.3539C22.4965 11.4643 20.9252 11.4682 19.4117 11.3637C19.3186 11.3573 19.2826 11.3918 19.2321 11.5358L19.1688 11.716L19.3974 11.7646C19.5231 11.7914 19.8241 11.8492 20.0661 11.8931C20.3082 11.937 20.5447 11.9841 20.5918 11.9977C20.6681 12.0198 20.6773 12.0973 20.677 12.716C20.6765 13.5726 20.591 16.2542 20.5535 16.5912C20.5266 16.8325 20.5193 16.8422 20.2715 16.9652C19.9389 17.1302 19.4075 17.5109 19.0335 17.852L18.7344 18.1248L18.171 17.1363C17.0916 15.2423 16.0486 13.2409 15.4212 11.8599L15.1837 11.3371L15.0332 11.3709C14.8317 11.4161 12.8028 11.4141 12.4572 11.3684L12.1833 11.3321L12.1078 11.5243ZM20.4818 17.714C20.4818 17.9601 20.2783 20.2591 20.2444 20.3964C20.2117 20.5287 20.1813 20.4915 19.751 19.7928L19.2925 19.0483L19.3815 18.8939C19.6822 18.3723 20.3163 17.5904 20.4385 17.5904C20.4623 17.5904 20.4818 17.646 20.4818 17.714ZM13.7872 33.181C16.8675 34.7499 20.3636 35.2218 23.7782 34.5296C24.0985 34.4646 24.3703 34.4212 24.3821 34.433C24.4044 34.4553 23.5652 34.7221 22.9267 34.8958C22.3803 35.0444 21.1805 35.275 20.4329 35.375C19.9111 35.4448 19.4396 35.4633 18.1835 35.4633C16.5214 35.4633 15.9876 35.4203 14.7605 35.1875C13.8346 35.0118 12.2194 34.5706 12.1037 34.4618C12.0732 34.4331 13.074 32.8472 13.1226 32.8472C13.1277 32.8472 13.4267 32.9974 13.7872 33.181Z" fill="white"/>
</svg>
