<svg width="236" height="70" viewBox="0 0 236 70" fill="none" xmlns="http://www.w3.org/2000/svg">
<path fill-rule="evenodd" clip-rule="evenodd" d="M37.5179 8.0864C32.2938 8.6805 27.581 10.7595 23.4847 14.277C23.0824 14.6225 22.745 14.8942 22.7351 14.8809C22.7252 14.8676 22.3116 14.1037 21.816 13.1834C21.0425 11.7466 20.8981 11.5192 20.7943 11.5748C20.561 11.6997 18.6428 13.5958 17.9379 14.3983C14.2462 18.6014 11.9268 23.743 11.1615 29.4201C10.9829 30.7438 10.9431 34.0791 11.0892 35.4617C11.8687 42.8388 15.4198 49.302 21.1421 53.7585C23.017 55.2187 25.5211 56.6256 27.6635 57.4223C28.0125 57.5521 28.3103 57.6669 28.3253 57.6774C28.3403 57.6878 27.9363 58.328 27.4276 59.1C26.9189 59.872 26.4841 60.5522 26.4613 60.6116C26.3824 60.8174 29.3108 61.864 31.2239 62.3137C34.566 63.0991 38.4331 63.2162 41.8347 62.6351C46.3787 61.8586 50.6523 59.8629 54.2432 56.8402C55.1154 56.1061 56.8677 54.3 57.6166 53.3634C60.6597 49.5572 62.5783 45.0356 63.2364 40.1188C63.4233 38.7227 63.4933 36.0401 63.3803 34.6037C63.2955 33.5268 63.0245 31.6156 62.853 30.8856C62.8009 30.6636 62.7751 30.4653 62.7956 30.4448C62.816 30.4243 63.5454 30.4075 64.4164 30.4075H66L65.9533 30.1077C65.8679 29.5594 65.4233 27.8329 65.1299 26.9102C62.8688 19.8007 57.9813 13.9456 51.5993 10.7009C49.0525 9.40606 46.6186 8.63635 43.6325 8.1814C42.3827 7.99105 38.8406 7.93597 37.5179 8.0864ZM36.4805 14.1147C38.4658 14.2371 40.0256 14.5354 41.8347 15.1388C45.1148 16.2329 47.8006 17.9145 50.3303 20.4579C52.8983 23.0397 54.7602 26.0815 55.9026 29.5612L56.1688 30.3722L58.301 30.3909L60.4331 30.4096L60.3845 29.6577C60.3578 29.2441 60.2552 28.4264 60.1566 27.8406C59.4948 23.9101 57.9194 20.3516 55.4009 17.0982L54.9761 16.5493L55.7648 17.3604C58.5203 20.1938 60.8507 24.1334 62.1267 28.1154C62.3412 28.7846 62.7388 30.2476 62.7388 30.3673C62.7388 30.3894 62.2312 30.4075 61.6108 30.4075H60.4827V31.416C60.4827 37.4854 58.2271 43.0338 54.0683 47.1938C50.59 50.6732 46.2297 52.7439 41.1296 53.3385C40.0286 53.4668 37.3997 53.4464 36.2649 53.3007C35.1297 53.155 33.5304 52.8294 32.6013 52.5549C32.2149 52.4407 31.8941 52.3538 31.8884 52.3617C31.8827 52.3696 31.4572 53.0107 30.9429 53.7865C30.4286 54.5623 29.9813 55.2259 29.9488 55.2612C29.831 55.3897 28.1574 54.2723 26.8685 53.2047C25.8401 52.3529 24.3708 50.8079 23.5603 49.7258C21.206 46.5832 19.8072 43.1515 19.2649 39.1878C19.0885 37.8996 19.0887 34.9035 19.265 33.6164C19.6417 30.8675 20.3553 28.5254 21.5341 26.1684C22.5746 24.088 23.6222 22.562 25.3312 20.6373L25.6464 20.2822L24.8695 18.8403C23.9645 17.1608 23.9302 17.4175 25.1512 16.7309C27.8055 15.2386 30.9483 14.309 33.9736 14.1213C35.239 14.0428 35.3094 14.0427 36.4805 14.1147ZM23.4157 16.126C23.7551 16.7636 24.0316 17.3102 24.0304 17.3405C24.0292 17.3708 23.8158 17.5384 23.5563 17.713C22.0136 18.7507 19.876 20.7205 18.7346 22.1561C16.9516 24.3987 15.6263 26.8472 14.7647 29.4907C14.299 30.9196 14.2977 30.9228 14.3457 30.5485C14.4831 29.4756 15.1043 27.1865 15.6701 25.6676C17.0554 21.9489 19.0806 18.7097 21.7318 15.9719C22.2694 15.4168 22.7295 14.9634 22.7541 14.9645C22.7787 14.9656 23.0765 15.4883 23.4157 16.126ZM28.4568 24.6208L28.348 24.898L28.6755 24.9663C28.8557 25.0039 29.3271 25.0904 29.7231 25.1587C30.119 25.2269 30.4788 25.3049 30.5225 25.3319C30.6701 25.4232 30.4026 28.9628 30.0216 31.959C29.7296 34.2548 29.1643 37.6419 28.7527 39.562L28.6774 39.9129L27.6488 40.1135C26.6259 40.3131 26.6197 40.3155 26.525 40.5421C26.4726 40.6675 26.4297 40.7791 26.4297 40.79C26.4297 40.801 27.8704 40.8099 29.6312 40.8099H32.8327L32.903 40.5808C32.9417 40.4547 32.9525 40.3401 32.927 40.326C32.9016 40.3119 32.4128 40.2102 31.8408 40.0999L30.8009 39.8993L30.8018 38.3799C30.8039 34.9566 31.0307 30.8374 31.3764 27.9452C31.4483 27.3438 31.4653 27.294 31.5572 27.4163C31.8937 27.8639 34.4518 32.2438 36.2454 35.4435L36.558 36.0012L36.1837 36.7183C35.7794 37.4926 35.248 38.9987 35.0709 39.8723C34.7837 41.2885 34.754 43.0243 34.997 44.1951C35.4308 46.2855 36.6367 47.6347 38.4899 48.103C40.5982 48.6357 43.733 48.0247 45.8948 46.6596C46.1498 46.4985 46.159 46.4783 46.1821 46.0316C46.1951 45.7778 46.1932 45.5701 46.1776 45.5702C46.1621 45.5703 45.9264 45.699 45.6537 45.8563C44.5122 46.5145 43.4975 46.822 42.2577 46.8851C40.3497 46.9823 39.0379 46.2522 38.2476 44.6535C37.7599 43.6669 37.6173 42.9118 37.6149 41.3036C37.6131 40.13 37.7427 38.5497 37.8459 38.4859C37.8701 38.4709 38.1846 39.0268 38.5448 39.7211C38.9051 40.4154 39.2275 41.0005 39.2612 41.0215C39.3049 41.0485 40.5683 40.4114 40.9331 40.1784C40.9412 40.1731 40.9814 39.5355 41.0223 38.7615C41.1472 36.3978 41.539 32.837 41.6919 32.6759C41.741 32.6241 42.0847 32.5301 42.4556 32.4669C43.6292 32.2672 44.569 32.4886 45.2489 33.1247C45.6561 33.5057 45.9381 34.0242 46.0026 34.5101C46.0634 34.9683 46.1683 34.9546 46.812 34.4048C47.5937 33.7371 47.8815 33.3197 47.8752 32.863C47.8569 31.5359 45.1152 30.9114 42.3796 31.6113C42.0864 31.6863 41.8304 31.7314 41.8106 31.7116C41.7386 31.6396 42.8585 25.4456 42.9624 25.3418C42.9783 25.3258 43.2863 25.253 43.6468 25.1799C44.0073 25.1068 44.4663 25.0137 44.6668 24.973C44.983 24.9086 45.0416 24.8699 45.1075 24.6806C45.225 24.3435 45.211 24.329 44.8134 24.375C43.4352 24.5342 41.1697 24.5398 38.9876 24.3892C38.8534 24.3799 38.8015 24.4296 38.7286 24.6373L38.6374 24.8972L38.9669 24.9673C39.1482 25.0059 39.5821 25.0893 39.9311 25.1526C40.2801 25.2159 40.6212 25.2838 40.689 25.3035C40.799 25.3353 40.8123 25.4472 40.8118 26.3394C40.8112 27.5749 40.6879 31.4424 40.6338 31.9284C40.595 32.2764 40.5844 32.2904 40.2273 32.4677C39.7477 32.7058 38.9815 33.2549 38.4423 33.7468L38.011 34.1402L37.1988 32.7146C35.6425 29.983 34.1386 27.0965 33.2341 25.1047L32.8916 24.3507L32.6747 24.3995C32.3842 24.4646 29.459 24.4618 28.9607 24.3959L28.5658 24.3435L28.4568 24.6208ZM40.5303 33.5477C40.5303 33.9026 40.2371 37.2184 40.1881 37.4164C40.141 37.6072 40.0972 37.5535 39.4768 36.5458L38.8156 35.4721L38.944 35.2494C39.3776 34.4972 40.2918 33.3695 40.468 33.3695C40.5023 33.3695 40.5303 33.4497 40.5303 33.5477ZM30.8783 55.8548C35.3194 58.1174 40.3599 58.798 45.2831 57.7997C45.745 57.7061 46.1368 57.6434 46.1539 57.6604C46.186 57.6925 44.9761 58.0775 44.0555 58.3279C43.2676 58.5423 41.5378 58.8747 40.4598 59.019C39.7076 59.1197 39.0277 59.1464 37.2167 59.1464C34.8203 59.1464 34.0508 59.0843 32.2815 58.7486C30.9466 58.4952 28.6178 57.8589 28.4509 57.7019C28.407 57.6606 29.85 55.3733 29.92 55.3733C29.9273 55.3733 30.3585 55.59 30.8783 55.8548Z" fill="#2A7D2E"/>
<path d="M84.472 31.56C85.512 31.56 86.44 31.776 87.256 32.208C88.088 32.64 88.736 33.28 89.2 34.128C89.664 34.976 89.896 36 89.896 37.2V45H87.184V37.608C87.184 36.424 86.888 35.52 86.296 34.896C85.704 34.256 84.896 33.936 83.872 33.936C82.848 33.936 82.032 34.256 81.424 34.896C80.832 35.52 80.536 36.424 80.536 37.608V45H77.8V31.776H80.536V33.288C80.984 32.744 81.552 32.32 82.24 32.016C82.944 31.712 83.688 31.56 84.472 31.56ZM92.4739 38.328C92.4739 37 92.7459 35.824 93.2899 34.8C93.8499 33.776 94.6019 32.984 95.5459 32.424C96.5059 31.848 97.5619 31.56 98.7139 31.56C99.7539 31.56 100.658 31.768 101.426 32.184C102.21 32.584 102.834 33.088 103.298 33.696V31.776H106.058V45H103.298V43.032C102.834 43.656 102.202 44.176 101.402 44.592C100.602 45.008 99.6899 45.216 98.6659 45.216C97.5299 45.216 96.4899 44.928 95.5459 44.352C94.6019 43.76 93.8499 42.944 93.2899 41.904C92.7459 40.848 92.4739 39.656 92.4739 38.328ZM103.298 38.376C103.298 37.464 103.106 36.672 102.722 36C102.354 35.328 101.866 34.816 101.258 34.464C100.65 34.112 99.9939 33.936 99.2899 33.936C98.5859 33.936 97.9299 34.112 97.3219 34.464C96.7139 34.8 96.2179 35.304 95.8339 35.976C95.4659 36.632 95.2819 37.416 95.2819 38.328C95.2819 39.24 95.4659 40.04 95.8339 40.728C96.2179 41.416 96.7139 41.944 97.3219 42.312C97.9459 42.664 98.6019 42.84 99.2899 42.84C99.9939 42.84 100.65 42.664 101.258 42.312C101.866 41.96 102.354 41.448 102.722 40.776C103.106 40.088 103.298 39.288 103.298 38.376ZM112.844 34.008V41.328C112.844 41.824 112.956 42.184 113.18 42.408C113.42 42.616 113.82 42.72 114.38 42.72H116.06V45H113.9C112.668 45 111.724 44.712 111.068 44.136C110.412 43.56 110.084 42.624 110.084 41.328V34.008H108.524V31.776H110.084V28.488H112.844V31.776H116.06V34.008H112.844ZM130.557 31.776V45H127.821V43.44C127.389 43.984 126.821 44.416 126.117 44.736C125.429 45.04 124.693 45.192 123.909 45.192C122.869 45.192 121.933 44.976 121.101 44.544C120.285 44.112 119.637 43.472 119.157 42.624C118.693 41.776 118.461 40.752 118.461 39.552V31.776H121.173V39.144C121.173 40.328 121.469 41.24 122.061 41.88C122.653 42.504 123.461 42.816 124.485 42.816C125.509 42.816 126.317 42.504 126.909 41.88C127.517 41.24 127.821 40.328 127.821 39.144V31.776H130.557ZM136.903 33.696C137.303 33.024 137.831 32.504 138.487 32.136C139.159 31.752 139.951 31.56 140.863 31.56V34.392H140.167C139.095 34.392 138.279 34.664 137.719 35.208C137.175 35.752 136.903 36.696 136.903 38.04V45H134.167V31.776H136.903V33.696ZM155.498 38.064C155.498 38.56 155.466 39.008 155.402 39.408H145.298C145.378 40.464 145.77 41.312 146.474 41.952C147.178 42.592 148.042 42.912 149.066 42.912C150.538 42.912 151.578 42.296 152.186 41.064H155.138C154.738 42.28 154.01 43.28 152.954 44.064C151.914 44.832 150.618 45.216 149.066 45.216C147.802 45.216 146.666 44.936 145.658 44.376C144.666 43.8 143.882 43 143.306 41.976C142.746 40.936 142.466 39.736 142.466 38.376C142.466 37.016 142.738 35.824 143.282 34.8C143.842 33.76 144.618 32.96 145.61 32.4C146.618 31.84 147.77 31.56 149.066 31.56C150.314 31.56 151.426 31.832 152.402 32.376C153.378 32.92 154.138 33.688 154.682 34.68C155.226 35.656 155.498 36.784 155.498 38.064ZM152.642 37.2C152.626 36.192 152.266 35.384 151.562 34.776C150.858 34.168 149.986 33.864 148.946 33.864C148.002 33.864 147.194 34.168 146.522 34.776C145.85 35.368 145.45 36.176 145.322 37.2H152.642ZM176.427 38.376C176.427 37.016 176.699 35.824 177.243 34.8C177.803 33.76 178.571 32.96 179.547 32.4C180.523 31.84 181.643 31.56 182.907 31.56C184.507 31.56 185.827 31.944 186.867 32.712C187.923 33.464 188.635 34.544 189.003 35.952H186.051C185.811 35.296 185.427 34.784 184.899 34.416C184.371 34.048 183.707 33.864 182.907 33.864C181.787 33.864 180.891 34.264 180.219 35.064C179.563 35.848 179.235 36.952 179.235 38.376C179.235 39.8 179.563 40.912 180.219 41.712C180.891 42.512 181.787 42.912 182.907 42.912C184.491 42.912 185.539 42.216 186.051 40.824H189.003C188.619 42.168 187.899 43.24 186.843 44.04C185.787 44.824 184.475 45.216 182.907 45.216C181.643 45.216 180.523 44.936 179.547 44.376C178.571 43.8 177.803 43 177.243 41.976C176.699 40.936 176.427 39.736 176.427 38.376ZM190.818 38.328C190.818 37 191.09 35.824 191.634 34.8C192.194 33.776 192.946 32.984 193.89 32.424C194.85 31.848 195.906 31.56 197.058 31.56C198.098 31.56 199.002 31.768 199.77 32.184C200.554 32.584 201.178 33.088 201.642 33.696V31.776H204.402V45H201.642V43.032C201.178 43.656 200.546 44.176 199.746 44.592C198.946 45.008 198.034 45.216 197.01 45.216C195.874 45.216 194.834 44.928 193.89 44.352C192.946 43.76 192.194 42.944 191.634 41.904C191.09 40.848 190.818 39.656 190.818 38.328ZM201.642 38.376C201.642 37.464 201.45 36.672 201.066 36C200.698 35.328 200.21 34.816 199.602 34.464C198.994 34.112 198.338 33.936 197.634 33.936C196.93 33.936 196.274 34.112 195.666 34.464C195.058 34.8 194.562 35.304 194.178 35.976C193.81 36.632 193.626 37.416 193.626 38.328C193.626 39.24 193.81 40.04 194.178 40.728C194.562 41.416 195.058 41.944 195.666 42.312C196.29 42.664 196.946 42.84 197.634 42.84C198.338 42.84 198.994 42.664 199.602 42.312C200.21 41.96 200.698 41.448 201.066 40.776C201.45 40.088 201.642 39.288 201.642 38.376ZM210.731 33.696C211.131 33.024 211.659 32.504 212.315 32.136C212.987 31.752 213.779 31.56 214.691 31.56V34.392H213.995C212.923 34.392 212.107 34.664 211.547 35.208C211.003 35.752 210.731 36.696 210.731 38.04V45H207.995V31.776H210.731V33.696ZM229.326 38.064C229.326 38.56 229.294 39.008 229.23 39.408H219.126C219.206 40.464 219.598 41.312 220.302 41.952C221.006 42.592 221.87 42.912 222.894 42.912C224.366 42.912 225.406 42.296 226.014 41.064H228.966C228.566 42.28 227.838 43.28 226.782 44.064C225.742 44.832 224.446 45.216 222.894 45.216C221.63 45.216 220.494 44.936 219.486 44.376C218.494 43.8 217.71 43 217.134 41.976C216.574 40.936 216.294 39.736 216.294 38.376C216.294 37.016 216.566 35.824 217.11 34.8C217.67 33.76 218.446 32.96 219.438 32.4C220.446 31.84 221.598 31.56 222.894 31.56C224.142 31.56 225.254 31.832 226.23 32.376C227.206 32.92 227.966 33.688 228.51 34.68C229.054 35.656 229.326 36.784 229.326 38.064ZM226.47 37.2C226.454 36.192 226.094 35.384 225.39 34.776C224.686 34.168 223.814 33.864 222.774 33.864C221.83 33.864 221.022 34.168 220.35 34.776C219.678 35.368 219.278 36.176 219.15 37.2H226.47Z" fill="#2A7D2E"/>
<path d="M170.767 45L169.207 43.488C167.655 44.672 165.799 45.264 163.639 45.264C162.343 45.264 161.215 45.056 160.255 44.64C159.295 44.208 158.551 43.608 158.023 42.84C157.511 42.056 157.255 41.144 157.255 40.104C157.255 39.048 157.535 38.096 158.095 37.248C158.671 36.384 159.527 35.68 160.663 35.136C160.247 34.624 159.951 34.136 159.775 33.672C159.599 33.192 159.511 32.672 159.511 32.112C159.511 31.312 159.719 30.584 160.135 29.928C160.551 29.272 161.151 28.76 161.935 28.392C162.735 28.008 163.679 27.816 164.767 27.816C165.871 27.816 166.807 28.016 167.575 28.416C168.343 28.816 168.919 29.352 169.303 30.024C169.687 30.696 169.863 31.432 169.831 32.232H165.967C165.983 31.8 165.871 31.472 165.631 31.248C165.407 31.008 165.103 30.888 164.719 30.888C164.335 30.888 164.015 31 163.759 31.224C163.503 31.448 163.375 31.736 163.375 32.088C163.375 32.424 163.479 32.776 163.687 33.144C163.911 33.512 164.255 33.936 164.719 34.416L168.823 38.424C168.855 38.344 168.895 38.248 168.943 38.136C169.007 38.024 169.071 37.896 169.135 37.752L170.023 36.24H174.127L172.975 38.328C172.543 39.272 172.047 40.168 171.487 41.016L175.543 45H170.767ZM163.831 41.952C164.903 41.952 165.855 41.648 166.687 41.04L162.943 37.416C161.791 38.008 161.215 38.808 161.215 39.816C161.215 40.424 161.447 40.936 161.911 41.352C162.391 41.752 163.031 41.952 163.831 41.952Z" fill="#F58334"/>
</svg>
