<svg width="31" height="13" viewBox="0 0 31 13" fill="none" xmlns="http://www.w3.org/2000/svg">
<path d="M0.976 0.039999H2.624L5.776 7.432V0.039999H7.728V13H6.16L2.992 5.256V13H0.976V0.039999ZM9.69475 0.039999H15.1348V1.704H12.0468V5.432H14.4788V7.08H12.0468V11.384H15.1668V13H9.69475V0.039999ZM18.3305 6.12L15.8025 0.039999H18.0105L19.6905 4.072L21.1625 0.039999H23.1945L20.7145 6.568L23.3865 13H21.1945L19.3545 8.632L17.7545 13H15.7225L18.3305 6.12ZM25.8189 1.784H23.7549V0.039999H30.2029V1.784H28.1869V13H25.8189V1.784Z" fill="#F1CF69"/>
</svg>
