<svg width="33" height="13" viewBox="0 0 33 13" fill="none" xmlns="http://www.w3.org/2000/svg">
<path d="M0.976 0.039999H4.784C6.992 0.039999 8.096 1.26667 8.096 3.72C8.096 6.06667 6.93867 7.24 4.624 7.24H3.328V13H0.976V0.039999ZM4.24 5.576C4.88 5.576 5.312 5.44267 5.536 5.176C5.76 4.89867 5.872 4.408 5.872 3.704C5.872 3.192 5.83467 2.80267 5.76 2.536C5.68533 2.25867 5.53067 2.05067 5.296 1.912C5.072 1.77333 4.72 1.704 4.24 1.704H3.328V5.576H4.24ZM9.4135 0.039999H12.5335C13.8988 0.039999 14.9175 0.301332 15.5895 0.823999C16.2615 1.336 16.5975 2.22133 16.5975 3.48C16.5975 4.30133 16.4748 4.97333 16.2295 5.496C15.9948 6.008 15.5842 6.38133 14.9975 6.616L16.8055 13H14.4375L12.8855 7.064H11.7655V13H9.4135V0.039999ZM12.5175 5.592C13.1895 5.592 13.6642 5.43733 13.9415 5.128C14.2295 4.81867 14.3735 4.312 14.3735 3.608C14.3735 2.92533 14.2455 2.42933 13.9895 2.12C13.7442 1.81067 13.2962 1.656 12.6455 1.656H11.7655V5.592H12.5175ZM18.3823 0.039999H23.8223V1.704H20.7343V5.432H23.1663V7.08H20.7343V11.384H23.8543V13H18.3823V0.039999ZM24.618 0.039999H26.698L28.41 9.208L30.026 0.039999H32.154L29.546 13H27.226L24.618 0.039999Z" fill="#F1CF69"/>
</svg>
