<?xml version="1.0" encoding="iso-8859-1"?>
<!-- Generator: Adobe Illustrator 17.1.0, SVG Export Plug-In . SVG Version: 6.00 Build 0)  -->
<!DOCTYPE svg PUBLIC "-//W3C//DTD SVG 1.1//EN" "http://www.w3.org/Graphics/SVG/1.1/DTD/svg11.dtd">
<svg version="1.1" id="Capa_1" xmlns="http://www.w3.org/2000/svg" xmlns:xlink="http://www.w3.org/1999/xlink" x="0px" y="0px"
	 viewBox="0 0 470 470" style="enable-background:new 0 0 470 470;" xml:space="preserve">
<g>
	<path d="M290,102.736c4.411,0,8-3.589,8-8s-3.589-8-8-8s-8,3.589-8,8S285.589,102.736,290,102.736z"/>
	<path d="M270,72.736c4.411,0,8-3.589,8-8s-3.589-8-8-8s-8,3.589-8,8S265.589,72.736,270,72.736z"/>
	<path d="M190,94.736c4.411,0,8-3.589,8-8s-3.589-8-8-8s-8,3.589-8,8S185.589,94.736,190,94.736z"/>
	<path d="M406.322,409.316l-10.934-10.934l-6.57-188.861c11.321-3.342,19.608-13.826,19.608-26.215v-38.138
		c0-15.072-12.262-27.334-27.334-27.334h-18.28C300.124,25.442,272.378,0,235,0c-37.378,0-65.124,25.442-127.813,117.835h-18.28
		c-15.072,0-27.334,12.262-27.334,27.334v38.138c0,12.389,8.287,22.873,19.608,26.215l-6.57,188.861l-10.935,10.934
		c-13.034,13.035-13.034,34.244,0,47.278c6.314,6.314,14.709,9.792,23.64,9.792c8.93,0,17.324-3.477,23.639-9.792l1.647-1.647
		C146.97,464.267,193.347,470,235,470s88.03-5.733,122.397-15.053l1.647,1.647c6.314,6.314,14.709,9.792,23.639,9.792
		c8.931,0,17.325-3.477,23.64-9.792C419.357,443.56,419.357,422.351,406.322,409.316z M369.652,445.988l-4.748-4.748
		c-1.931-1.93-4.758-2.66-7.384-1.903C324.048,448.999,277.101,455,235,455s-89.048-6.001-122.521-15.663
		c-2.629-0.757-5.452-0.027-7.384,1.903l-4.748,4.748c-3.48,3.481-8.108,5.398-13.031,5.398c-4.924,0-9.552-1.917-13.032-5.398
		c-7.187-7.187-7.187-18.879-0.001-26.065L87.307,406.9c1.343-1.343,2.127-3.145,2.192-5.042l6.651-191.216h22.757
		c4.143,0,7.5-3.358,7.5-7.5c0-4.142-3.357-7.5-7.5-7.5h-30c-6.801,0-12.334-5.533-12.334-12.334v-38.138
		c0-6.801,5.533-12.334,12.334-12.334h292.186c6.801,0,12.334,5.533,12.334,12.334v38.138c0,6.801-5.533,12.334-12.334,12.334
		H148.907c-4.143,0-7.5,3.358-7.5,7.5c0,4.142,3.357,7.5,7.5,7.5H373.85l6.651,191.216c0.065,1.898,0.85,3.7,2.192,5.042
		l13.022,13.023c7.187,7.186,7.187,18.879,0,26.065c-3.48,3.481-8.108,5.398-13.032,5.398
		C377.761,451.386,373.133,449.469,369.652,445.988z M235,15c30.151,0,54.572,22.467,109.659,102.835H125.341
		C180.428,37.467,204.849,15,235,15z"/>
	<path d="M331.563,254.125l-28.604,29.458l-28.604-29.458c-1.412-1.455-3.354-2.275-5.381-2.275s-3.969,0.821-5.381,2.276
		l-28.6,29.457l-28.598-29.457c-1.412-1.455-3.354-2.276-5.381-2.276s-3.969,0.821-5.381,2.276l-28.599,29.457l-28.598-29.457
		c-2.885-2.972-7.631-3.042-10.605-0.157c-2.972,2.885-3.042,7.634-0.156,10.605l33.979,35c1.412,1.455,3.354,2.276,5.381,2.276
		s3.969-0.821,5.381-2.276l28.599-29.457l28.598,29.457c1.412,1.455,3.354,2.276,5.381,2.276s3.969-0.821,5.381-2.276l28.6-29.458
		l28.604,29.458c1.412,1.455,3.354,2.275,5.381,2.275s3.969-0.821,5.381-2.275l33.985-35c2.886-2.972,2.815-7.72-0.156-10.605
		C339.197,251.083,334.448,251.152,331.563,254.125z"/>
</g>
<g>
</g>
<g>
</g>
<g>
</g>
<g>
</g>
<g>
</g>
<g>
</g>
<g>
</g>
<g>
</g>
<g>
</g>
<g>
</g>
<g>
</g>
<g>
</g>
<g>
</g>
<g>
</g>
<g>
</g>
</svg>
