<?xml version="1.0" encoding="iso-8859-1"?>
<!-- Generator: Adobe Illustrator 17.1.0, SVG Export Plug-In . SVG Version: 6.00 Build 0)  -->
<!DOCTYPE svg PUBLIC "-//W3C//DTD SVG 1.1//EN" "http://www.w3.org/Graphics/SVG/1.1/DTD/svg11.dtd">
<svg version="1.1" id="Capa_1" xmlns="http://www.w3.org/2000/svg" xmlns:xlink="http://www.w3.org/1999/xlink" x="0px" y="0px"
	 viewBox="0 0 470.002 470.002" style="enable-background:new 0 0 470.002 470.002;" xml:space="preserve">
<g>
	<path d="M60.761,166.018h5.102l11.15,25.399c0.008,0.018,0.016,0.036,0.024,0.054l35.149,80.066
		c10.459,23.824,35.642,39.02,61.165,39.02c6.146,0,12.311-0.881,18.294-2.734l150.585-46.644
		c11.843-3.669,22.348-16.177,23.915-28.475l9.337-73.238c0.272-2.137-0.387-4.289-1.811-5.905
		c-1.424-1.617-3.475-2.543-5.629-2.543h-20.828C284.525,58.625,256.779,33.183,219.401,33.183S154.278,58.625,91.589,151.018
		H60.761c-4.143,0-7.5,3.358-7.5,7.5S56.618,166.018,60.761,166.018z M219.401,48.183c30.151,0,54.572,22.467,109.659,102.835
		H109.742C164.83,70.649,189.25,48.183,219.401,48.183z M95.542,166.018c0.033,0,247.685,0,247.685,0c0.03,0,16.299,0,16.299,0
		l-1.912,15H143.931c-4.143,0-7.5,3.358-7.5,7.5s3.357,7.5,7.5,7.5h211.77l-4.435,34.79c-0.825,6.467-7.247,14.114-13.475,16.043
		l-150.584,46.644c-23.786,7.366-51.277-5.187-61.287-27.987l-30.506-69.49h18.517c4.143,0,7.5-3.358,7.5-7.5s-3.357-7.5-7.5-7.5
		H88.829l-6.585-15H95.542z"/>
	<path d="M469.664,243.728c-1.226-3.956-5.425-6.172-9.383-4.945L132.247,340.391c-10.633-24.414-34.984-41.531-63.268-41.531
		C30.944,298.86,0,329.804,0,367.84s30.944,68.979,68.979,68.979s68.979-30.944,68.979-68.979c0-4.488-0.445-8.872-1.268-13.123
		l113.368-35.116l46.229,105.307c2.982,6.79,10.823,11.91,18.238,11.91h18.034c8.607,0,15.61-7.003,15.61-15.61V289.212
		l116.548-36.101C468.676,251.885,470.89,247.685,469.664,243.728z M61.815,370.059c0.997,3.218,3.961,5.283,7.162,5.283
		c0.734,0,1.482-0.109,2.221-0.338l21.75-6.737c-0.23,13.025-10.889,23.552-23.969,23.552C55.757,391.819,45,381.062,45,367.84
		s10.757-23.979,23.979-23.979c8.044,0,15.17,3.986,19.522,10.081l-21.741,6.734C62.804,361.901,60.59,366.102,61.815,370.059z
		 M68.979,328.86C47.486,328.86,30,346.347,30,367.84s17.486,38.979,38.979,38.979s38.979-17.486,38.979-38.979
		c0-1.403-0.078-2.788-0.224-4.153l14.521-4.498c0.456,2.818,0.702,5.706,0.702,8.651c0,29.764-24.215,53.979-53.979,53.979
		S15,397.604,15,367.84s24.215-53.979,53.979-53.979c21.551,0,40.184,12.699,48.832,31.003l-14.52,4.498
		C96.696,337.165,83.79,328.86,68.979,328.86z M333.171,421.209c0,0.319-0.291,0.61-0.61,0.61h-18.034
		c-1.471,0-3.912-1.595-4.504-2.941l-45.543-103.743l68.691-21.277V421.209z"/>
	<path d="M274.401,135.918c4.411,0,8-3.589,8-8s-3.589-8-8-8s-8,3.589-8,8S269.99,135.918,274.401,135.918z"/>
	<path d="M254.401,105.918c4.411,0,8-3.589,8-8s-3.589-8-8-8s-8,3.589-8,8S249.99,105.918,254.401,105.918z"/>
	<path d="M174.401,127.918c4.411,0,8-3.589,8-8s-3.589-8-8-8s-8,3.589-8,8S169.99,127.918,174.401,127.918z"/>
</g>
<g>
</g>
<g>
</g>
<g>
</g>
<g>
</g>
<g>
</g>
<g>
</g>
<g>
</g>
<g>
</g>
<g>
</g>
<g>
</g>
<g>
</g>
<g>
</g>
<g>
</g>
<g>
</g>
<g>
</g>
</svg>
